<svg id="visual" viewBox="0 0 900 200" width="900" height="200" xmlns="http://www.w3.org/2000/svg" xmlns:xlink="http://www.w3.org/1999/xlink" version="1.1"><rect x="0" y="0" width="900" height="200" fill="#a01414"></rect><path d="M0 176L9.3 177.7C18.7 179.3 37.3 182.7 56.2 182.7C75 182.7 94 179.3 112.8 176.7C131.7 174 150.3 172 169 172C187.7 172 206.3 174 225 176.7C243.7 179.3 262.3 182.7 281.2 182.8C300 183 319 180 337.8 177.7C356.7 175.3 375.3 173.7 394 173C412.7 172.3 431.3 172.7 450 174.8C468.7 177 487.3 181 506.2 182.8C525 184.7 544 184.3 562.8 183.7C581.7 183 600.3 182 619 179.8C637.7 177.7 656.3 174.3 675 174.5C693.7 174.7 712.3 178.3 731.2 181.2C750 184 769 186 787.8 185C806.7 184 825.3 180 844 177.7C862.7 175.3 881.3 174.7 890.7 174.3L900 174L900 201L890.7 201C881.3 201 862.7 201 844 201C825.3 201 806.7 201 787.8 201C769 201 750 201 731.2 201C712.3 201 693.7 201 675 201C656.3 201 637.7 201 619 201C600.3 201 581.7 201 562.8 201C544 201 525 201 506.2 201C487.3 201 468.7 201 450 201C431.3 201 412.7 201 394 201C375.3 201 356.7 201 337.8 201C319 201 300 201 281.2 201C262.3 201 243.7 201 225 201C206.3 201 187.7 201 169 201C150.3 201 131.7 201 112.8 201C94 201 75 201 56.2 201C37.3 201 18.7 201 9.3 201L0 201Z" fill="#0c0c2b" stroke-linecap="round" stroke-linejoin="miter"></path></svg>